<?xml version="1.0" standalone="no"?><!DOCTYPE svg PUBLIC "-//W3C//DTD SVG 1.1//EN" "http://www.w3.org/Graphics/SVG/1.1/DTD/svg11.dtd"><svg t="1492326181486" class="icon" style="" viewBox="0 0 1024 1024" version="1.1" xmlns="http://www.w3.org/2000/svg" p-id="4052" xmlns:xlink="http://www.w3.org/1999/xlink" width="160" height="160"><defs><style type="text/css"></style></defs><path d="M681.660534 929.18132 346.008106 929.18132c-48.330514 0-93.369688-26.005597-117.536952-67.861805L60.648955 570.64204c-24.175291-41.860222-24.175291-93.867403 0-135.72361l167.826214-290.681489c24.16325-41.860222 69.206438-67.857791 117.536952-67.857791l335.652428 0c48.330514 0 93.369688 25.99757 117.536952 67.857791l167.826214 290.681489c24.175291 41.860222 24.175291 93.867403 0 135.72361l-167.826214 290.677475C775.034235 903.175723 729.991047 929.18132 681.660534 929.18132zM346.008106 110.617111c-36.136502 0-69.808512 19.442987-87.886797 50.738811l-167.826214 290.681489c-18.066244 31.299838-18.066244 70.185812 0 101.48565l167.826214 290.677475c18.078285 31.299838 51.750296 50.742825 87.886797 50.742825l335.652428 0c36.136502 0 69.808512-19.442987 87.886797-50.742825l167.826214-290.677475c18.066244-31.299838 18.066244-70.185812 0-101.48565l-167.826214-290.681489c-18.078285-31.29181-51.750296-50.738811-87.886797-50.738811L346.008106 110.617111z" p-id="4053" fill="#707070"></path><path d="M510.767755 242.290767c-21.24921 0.100346-41.539115 1.910583-59.392626 5.069466-52.5932 9.292014-62.146113 28.739015-62.146113 64.60659l0 47.367195 124.288212 0 0 15.790403L389.233029 375.124421 342.588324 375.124421c-36.120446 0-67.749418 21.7108-77.643506 63.0131-11.411316 47.343112-11.917058 76.880879 0 126.319209 8.834437 36.794769 29.935136 63.0131 66.055582 63.0131l42.735236 0 0-56.783637c0-41.025345 35.494289-77.214026 77.643506-77.214026l124.143714 0c34.559067 0 62.146113-28.450019 62.146113-63.157598L637.668969 311.970837c0-33.680038-28.413895-58.987229-62.146113-64.60659C554.169286 243.807995 532.016965 242.190422 510.767755 242.290767L510.767755 242.290767zM443.552176 280.390031c12.836225 0 23.320346 10.656716 23.320346 23.757853 0 13.052972-10.484121 23.613355-23.320346 23.613355-12.884391 0-23.32436-10.55637-23.32436-23.613355C420.23183 291.046747 430.667785 280.390031 443.552176 280.390031L443.552176 280.390031z" p-id="4054" fill="#707070"></path><path d="M653.162348 375.128435l0 55.190147c0 42.79143-36.276986 78.803503-77.643506 78.803503l-124.143714 0c-34.005158 0-62.146113 29.104273-62.146113 63.161611l0 118.347745c0 33.680038 29.288909 53.496312 62.146113 63.157598 39.343551 11.571869 77.069529 13.663074 124.143714 0 31.29181-9.063226 62.146113-27.29805 62.146113-63.157598l0-47.367195-124.143714 0 0-15.790403 124.143714 0 62.146113 0c36.12446 0 49.582828-25.194804 62.146113-63.0131 12.976709-38.93414 12.426814-76.375136 0-126.319209-8.926755-35.955879-25.973487-63.0131-62.146113-63.0131L653.162348 375.128435 653.162348 375.128435 653.162348 375.128435zM583.341795 674.841038c12.884391 0 23.32436 10.55637 23.32436 23.613355 0 13.101138-10.439969 23.757853-23.32436 23.757853-12.836225 0-23.320346-10.656716-23.320346-23.757853C560.017435 685.397408 570.50557 674.841038 583.341795 674.841038L583.341795 674.841038z" p-id="4055" fill="#707070"></path></svg>